# xmcd
#
# Track frame offsets:
#	150
#	12545
#	25165
#	42440
#	55443
#	70623
#	83405
#	100263
#	114823
#	127840
#	140278
#	151833
#	164705
#	184880
#	197615
#	225390
#	236178
#	250310
#	262883
#	274430
# Disc length: 3809 seconds
# Revision: 1
# Processed by: cddbd v1.5.1PL0 Copyright (c) Steve Scherf et al.
#
# Submitted via: libkcddb 0.10
#
DISCID=0b0edf14
DTITLE=Mississippi Delta Blues - Round Midnight
DYEAR=1900
DGENRE=
TTITLE0=Whiskey and wimmen (John Lee Hooker)
TTITLE1=Hoho blues (John Lee Hooker)
TTITLE2=Blues before sunrise (John Lee Hooker)
TTITLE3=Mannish boy (Muddy Waters)
TTITLE4=They call me Muddy Waters (Muddy Waters)
TTITLE5=I'm your Hoochie Goochie man (Muddy Waters)
TTITLE6=I had a talk with my man (Mitty Collier)
TTITLE7=I gotta get away from it all (Mitty Collier)
TTITLE8=Dust my broom (Elmore James)
TTITLE9=Cry for my baby (Elmore James)
TTITLE10=Born blind (Sonny Boy Williamson)
TTITLE11=Like a wolf (Sonny Boy Williamson)
TTITLE12=I want to know (Lowell Fulson)
TTITLE13=Lonely hours (Lowell Fulson)
TTITLE14=Polka dots and moonbeams (Jonny Watson)
TTITLE15=Reconsider baby (Jonny Watson)
TTITLE16=Blues with a feeling (Little Walter)
TTITLE17=Tell me mama (Little Walter)
TTITLE18=Can't hold back the tears (Little Milton)
TTITLE19=I play dirty (Little Milton)
EXTD=
EXTT0=
EXTT1=
EXTT2=
EXTT3=
EXTT4=
EXTT5=
EXTT6=
EXTT7=
EXTT8=
EXTT9=
EXTT10=
EXTT11=
EXTT12=
EXTT13=
EXTT14=
EXTT15=
EXTT16=
EXTT17=
EXTT18=
EXTT19=
PLAYORDER=
